<svg version="1.1" xmlns="http://www.w3.org/2000/svg" xmlns:xlink="http://www.w3.org/1999/xlink" width="1753" height="787"><defs/><g><g transform="translate(10,-6) scale(1,1)"><path fill="none" stroke="#000000" d="M 1119 320 L 1200 320 L 1200 401 L 1119 401 L 1119 320 Z Z" stroke-miterlimit="10"/></g><g transform="translate(10,-6) scale(1,1)"><path fill="none" stroke="#000000" d="M 1119 320 L 1200 401" stroke-miterlimit="10"/></g><g transform="translate(10,-6) scale(1,1)"><path fill="none" stroke="#000000" d="M 1200 320 L 1119 401" stroke-miterlimit="10"/></g><g transform="translate(10,-6) scale(1,1)"><path fill="none" stroke="#000000" d="M 1024 426 L 1295 426" stroke-miterlimit="10"/></g><g transform="translate(10,-6) scale(1,1)"><path fill="none" stroke="#000000" d="M 1024 449 L 1295 449" stroke-miterlimit="10"/></g><g transform="translate(10,-6) scale(1,1)"><g><path fill="none" stroke="none"/><text fill="#000000" stroke="none" font-family="Times" font-size="13px" font-style="normal" font-weight="bold" text-decoration="none" x="1130.5" y="420.5">Estudiante</text></g></g><g transform="translate(10,-6) scale(1,1)"><g><path fill="none" stroke="none"/><text fill="#000000" stroke="none" font-family="Times" font-size="13px" font-style="normal" font-weight="normal" text-decoration="none" x="1029" y="443.5">-List&lt;Materia&gt; Materias</text></g></g><g transform="translate(10,-6) scale(1,1)"><g><path fill="none" stroke="none"/><text fill="#000000" stroke="none" font-family="Times" font-size="13px" font-style="normal" font-weight="normal" text-decoration="none" x="1029" y="466.5">+List&lt;Materia&gt;  getMaterias()</text></g></g><g transform="translate(10,-6) scale(1,1)"><g><path fill="none" stroke="none"/><text fill="#000000" stroke="none" font-family="Times" font-size="13px" font-style="normal" font-weight="normal" text-decoration="none" x="1029" y="481.5">+float getPromedio()</text></g></g><g transform="translate(10,-6) scale(1,1)"><rect fill="#C0C0C0" stroke="none" x="559" y="527" width="250.9853515625" height="263" opacity="0.2"/></g><g transform="translate(10,-6) scale(1,1)"><rect fill="#ffffff" stroke="none" x="552" y="520" width="250.9853515625" height="263"/></g><g transform="translate(10,-6) scale(1,1)"><path fill="none" stroke="#000000" d="M 552 520 L 802.9853515625 520 L 802.9853515625 783 L 552 783 L 552 520 Z Z" stroke-miterlimit="10"/></g><g transform="translate(10,-6) scale(1,1)"><path fill="none" stroke="#000000" d="M 552 545 L 802.9853515625 545" stroke-miterlimit="10"/></g><g transform="translate(10,-6) scale(1,1)"><path fill="none" stroke="#000000" d="M 552 568 L 802.9853515625 568" stroke-miterlimit="10"/></g><g transform="translate(10,-6) scale(1,1)"><g><path fill="none" stroke="none"/><text fill="#000000" stroke="none" font-family="Times" font-size="13px" font-style="normal" font-weight="bold" text-decoration="none" x="630.49267578125" y="539.5">ModelEstudiante</text></g></g><g transform="translate(10,-6) scale(1,1)"><g><path fill="none" stroke="none"/><text fill="#000000" stroke="none" font-family="Times" font-size="13px" font-style="normal" font-weight="normal" text-decoration="none" x="557" y="562.5">-List&lt;Estudiante&gt; Estudiantes</text></g></g><g transform="translate(10,-6) scale(1,1)"><g><path fill="none" stroke="none"/><text fill="#000000" stroke="none" font-family="Times" font-size="13px" font-style="normal" font-weight="normal" text-decoration="none" x="557" y="585.5">+void add()</text></g></g><g transform="translate(10,-6) scale(1,1)"><g><path fill="none" stroke="none"/><text fill="#000000" stroke="none" font-family="Times" font-size="13px" font-style="normal" font-weight="normal" text-decoration="none" x="557" y="600.5">+void edit(int position)</text></g></g><g transform="translate(10,-6) scale(1,1)"><g><path fill="none" stroke="none"/><text fill="#000000" stroke="none" font-family="Times" font-size="13px" font-style="normal" font-weight="normal" text-decoration="none" x="557" y="615.5">+void delete(int position)</text></g></g><g transform="translate(10,-6) scale(1,1)"><g><path fill="none" stroke="none"/><text fill="#000000" stroke="none" font-family="Times" font-size="13px" font-style="normal" font-weight="normal" text-decoration="none" x="557" y="630.5">+List&lt;Estudiante&gt; getEstudiantes()</text></g></g><g transform="translate(10,-6) scale(1,1)"><path fill="none" stroke="#000000" d="M 804 586 L 1023 473" stroke-miterlimit="10" stroke-dasharray="3"/></g><g transform="translate(10,-6) scale(1,1)"><path fill="none" stroke="#000000" d="M 1015.8989254699094 481.40087736597184 L 1023 473 L 1012.0384646926666 473.9190993994571" stroke-miterlimit="10"/></g><g transform="translate(10,-6) scale(1,1)"><g><path fill="none" stroke="none"/><text fill="#000000" stroke="none" font-family="Times" font-size="13px" font-style="normal" font-weight="normal" text-decoration="none" x="833.658935546875" y="521.5">+Relación de dependencia</text></g></g><g transform="translate(10,-6) scale(1,1)"><rect fill="#C0C0C0" stroke="none" x="535" y="79" width="313" height="256" opacity="0.2"/></g><g transform="translate(10,-6) scale(1,1)"><rect fill="#ffffff" stroke="none" x="528" y="72" width="313" height="256"/></g><g transform="translate(10,-6) scale(1,1)"><path fill="none" stroke="#000000" d="M 528 72 L 841 72 L 841 328 L 528 328 L 528 72 Z Z" stroke-miterlimit="10"/></g><g transform="translate(10,-6) scale(1,1)"><path fill="none" stroke="#000000" d="M 528 97 L 841 97" stroke-miterlimit="10"/></g><g transform="translate(10,-6) scale(1,1)"><path fill="none" stroke="#000000" d="M 528 135 L 841 135" stroke-miterlimit="10"/></g><g transform="translate(10,-6) scale(1,1)"><g><path fill="none" stroke="none"/><text fill="#000000" stroke="none" font-family="Times" font-size="13px" font-style="normal" font-weight="bold" text-decoration="none" x="621.5" y="91.5">ProgramGestorDeNotas</text></g></g><g transform="translate(10,-6) scale(1,1)"><g><path fill="none" stroke="none"/><text fill="#000000" stroke="none" font-family="Times" font-size="13px" font-style="normal" font-weight="normal" text-decoration="none" x="533" y="114.5">-ModelEstudiante ModelEstudiante</text></g></g><g transform="translate(10,-6) scale(1,1)"><g><path fill="none" stroke="none"/><text fill="#000000" stroke="none" font-family="Times" font-size="13px" font-style="normal" font-weight="normal" text-decoration="none" x="533" y="129.5">-LibraryPDF</text></g></g><g transform="translate(10,-6) scale(1,1)"><g><path fill="none" stroke="none"/><text fill="#000000" stroke="none" font-family="Times" font-size="13px" font-style="normal" font-weight="normal" text-decoration="none" x="533" y="152.5">+ProgramGestorDeNotas(ModelEstudiante, LibraryPDF)</text></g></g><g transform="translate(10,-6) scale(1,1)"><g><path fill="none" stroke="none"/><text fill="#000000" stroke="none" font-family="Times" font-size="13px" font-style="normal" font-weight="normal" text-decoration="none" x="533" y="167.5">+void addEstudiante()</text></g></g><g transform="translate(10,-6) scale(1,1)"><g><path fill="none" stroke="none"/><text fill="#000000" stroke="none" font-family="Times" font-size="13px" font-style="normal" font-weight="normal" text-decoration="none" x="533" y="182.5">+void editEstudiante()</text></g></g><g transform="translate(10,-6) scale(1,1)"><g><path fill="none" stroke="none"/><text fill="#000000" stroke="none" font-family="Times" font-size="13px" font-style="normal" font-weight="normal" text-decoration="none" x="533" y="197.5">+void deleteEstudiante()</text></g></g><g transform="translate(10,-6) scale(1,1)"><g><path fill="none" stroke="none"/><text fill="#000000" stroke="none" font-family="Times" font-size="13px" font-style="normal" font-weight="normal" text-decoration="none" x="533" y="212.5">+void generatePDF()</text></g></g><g transform="translate(10,-6) scale(1,1)"><g><path fill="none" stroke="none"/><text fill="#000000" stroke="none" font-family="Times" font-size="13px" font-style="normal" font-weight="normal" text-decoration="none" x="533" y="227.5">+void viewListaEstudiantes()</text></g></g><g transform="translate(10,-6) scale(1,1)"><g><path fill="none" stroke="none"/><text fill="#000000" stroke="none" font-family="Times" font-size="13px" font-style="normal" font-weight="normal" text-decoration="none" x="533" y="242.5">+run()</text></g></g><g transform="translate(10,-6) scale(1,1)"><path fill="none" stroke="#000000" d="M 1267.4124988889066 50.892761462015315 A 19 19 0 0 1 1246.5875011110934 19.107238537984685" stroke-miterlimit="10"/></g><g transform="translate(10,-6) scale(1,1)"><path fill="none" stroke="#000000" d="M 1200 79 L 1315.919921875 79" stroke-miterlimit="10"/></g><g transform="translate(10,-6) scale(1,1)"><g><path fill="none" stroke="none"/><text fill="#000000" stroke="none" font-family="Times" font-size="13px" font-style="normal" font-weight="bold" text-decoration="none" x="1211.9599609375" y="73.5">programInterface</text></g></g><g transform="translate(10,-6) scale(1,1)"><g><path fill="none" stroke="none"/><text fill="#000000" stroke="none" font-family="Times" font-size="13px" font-style="normal" font-weight="normal" text-decoration="none" x="1205" y="96.5">+run()</text></g></g><g transform="translate(10,-6) scale(1,1)"><path fill="none" stroke="#000000" d="M 842 161 L 1238.9599609375 46.8193359375" stroke-miterlimit="10"/></g><g transform="translate(10,-6) scale(1,1)"><g><path fill="none" stroke="none"/><text fill="#000000" stroke="none" font-family="Times" font-size="13px" font-style="normal" font-weight="normal" text-decoration="none" x="887.22119140625" y="94.5">+ProgramGestorDeNotas implementa programInterface</text></g></g><g transform="translate(10,-6) scale(1,1)"><path fill="none" stroke="#000000" d="M 1609.5 352 L 1635.5 352 L 1635.5 378 L 1609.5 378 L 1609.5 352 Z Z" stroke-miterlimit="10"/></g><g transform="translate(10,-6) scale(1,1)"><path fill="none" stroke="#000000" d="M 1609.5 352 L 1635.5 378" stroke-miterlimit="10"/></g><g transform="translate(10,-6) scale(1,1)"><path fill="none" stroke="#000000" d="M 1635.5 352 L 1609.5 378" stroke-miterlimit="10"/></g><g transform="translate(10,-6) scale(1,1)"><path fill="none" stroke="#000000" d="M 1512 403 L 1733 403" stroke-miterlimit="10"/></g><g transform="translate(10,-6) scale(1,1)"><path fill="none" stroke="#000000" d="M 1512 441 L 1733 441" stroke-miterlimit="10"/></g><g transform="translate(10,-6) scale(1,1)"><g><path fill="none" stroke="none"/><text fill="#000000" stroke="none" font-family="Times" font-size="13px" font-style="normal" font-weight="bold" text-decoration="none" x="1601.5" y="397.5">Materia</text></g></g><g transform="translate(10,-6) scale(1,1)"><g><path fill="none" stroke="none"/><text fill="#000000" stroke="none" font-family="Times" font-size="13px" font-style="normal" font-weight="normal" text-decoration="none" x="1517" y="420.5">-string Nombre</text></g></g><g transform="translate(10,-6) scale(1,1)"><g><path fill="none" stroke="none"/><text fill="#000000" stroke="none" font-family="Times" font-size="13px" font-style="normal" font-weight="normal" text-decoration="none" x="1517" y="435.5">-float[3] Notas</text></g></g><g transform="translate(10,-6) scale(1,1)"><g><path fill="none" stroke="none"/><text fill="#000000" stroke="none" font-family="Times" font-size="13px" font-style="normal" font-weight="normal" text-decoration="none" x="1517" y="458.5">+Materia(string nombre, float[3] Notas)</text></g></g><g transform="translate(10,-6) scale(1,1)"><path fill="none" stroke="#000000" d="M 1296 404 L 1511 407" stroke-miterlimit="10" stroke-dasharray="3"/></g><g transform="translate(10,-6) scale(1,1)"><path fill="none" stroke="#000000" d="M 1500.7795825936957 411.0673170568464 L 1511 407 L 1500.8970460733135 402.64910101757704" stroke-miterlimit="10"/></g><g transform="translate(10,-6) scale(1,1)"><g><path fill="none" stroke="none"/><text fill="#000000" stroke="none" font-family="Times" font-size="13px" font-style="normal" font-weight="normal" text-decoration="none" x="1323.03759765625" y="396.5">+Un estudiante tiene materias</text></g></g><g transform="translate(10,-6) scale(1,1)"><path fill="none" stroke="#000000" d="M 682 329 L 679 519" stroke-miterlimit="10" stroke-dasharray="3"/></g><g transform="translate(10,-6) scale(1,1)"><path fill="none" stroke="#000000" d="M 674.951450166636 508.7721339348441 L 679 519 L 683.3694364105962 508.9050495071171" stroke-miterlimit="10"/></g><g transform="translate(10,-6) scale(1,1)"><g><path fill="none" stroke="none"/><text fill="#000000" stroke="none" font-family="Times" font-size="13px" font-style="normal" font-weight="normal" text-decoration="none" x="533.712890625" y="430.5">+Program gestor de notas obtiene un modelo de estudiantes</text></g></g><g transform="translate(10,-6) scale(1,1)"><path fill="#C0C0C0" stroke="none" d="M 217.494384765625 433.5 C 217.494384765625 423.2827312 225.777115965625 415 235.994384765625 415 C 246.211653565625 415 254.494384765625 423.2827312 254.494384765625 433.5 C 254.494384765625 443.7172688 246.211653565625 452 235.994384765625 452 C 225.777115965625 452 217.494384765625 443.7172688 217.494384765625 433.5 Z" opacity="0.2"/></g><g transform="translate(10,-6) scale(1,1)"><path fill="#ffffff" stroke="none" d="M 210.494384765625 426.5 C 210.494384765625 416.2827312 218.777115965625 408 228.994384765625 408 C 239.211653565625 408 247.494384765625 416.2827312 247.494384765625 426.5 C 247.494384765625 436.7172688 239.211653565625 445 228.994384765625 445 C 218.777115965625 445 210.494384765625 436.7172688 210.494384765625 426.5 Z"/></g><g transform="translate(10,-6) scale(1,1)"><path fill="none" stroke="#000000" d="M 210.494384765625 426.5 C 210.494384765625 416.2827312 218.777115965625 408 228.994384765625 408 C 239.211653565625 408 247.494384765625 416.2827312 247.494384765625 426.5 C 247.494384765625 436.7172688 239.211653565625 445 228.994384765625 445 C 218.777115965625 445 210.494384765625 436.7172688 210.494384765625 426.5 Z" stroke-miterlimit="10"/></g><g transform="translate(10,-6) scale(1,1)"><path fill="none" stroke="#000000" d="M 0 485 L 457.98876953125 485" stroke-miterlimit="10"/></g><g transform="translate(10,-6) scale(1,1)"><g><path fill="none" stroke="none"/><text fill="#000000" stroke="none" font-family="Times" font-size="13px" font-style="normal" font-weight="bold" text-decoration="none" x="197.494384765625" y="464.5">LibraryPDF</text></g></g><g transform="translate(10,-6) scale(1,1)"><g><path fill="none" stroke="none"/><text fill="#000000" stroke="none" font-family="Times" font-size="13px" font-style="normal" font-weight="normal" text-decoration="none" x="33.896484375" y="479.5">{Tag1="Aquí se especifica lo que debe tener la librería que generará el PDF
"}</text></g></g><g transform="translate(10,-6) scale(1,1)"><path fill="none" stroke="#000000" d="M 527 286 L 247.494384765625 421.3700836181641" stroke-miterlimit="10"/></g><g transform="translate(10,-6) scale(1,1)"><g><path fill="none" stroke="none"/><text fill="#000000" stroke="none" font-family="Times" font-size="13px" font-style="normal" font-weight="normal" text-decoration="none" x="181.031494140625" y="372.5">+La instancia de la librería que se recibe en el constructor aplicará esta interfaz</text></g></g></g></svg>